<?xml version="1.0" encoding="utf-8"?>
<svg viewBox="346.269 192.331 395.52 148.845" xmlns="http://www.w3.org/2000/svg">
  <g id="g-1" transform="matrix(1, 0, 0, 1, 346.268951, 192.331451)">
    <svg viewBox="0 0 395.52 148.8446709754773" height="148.8446709754773" width="395.52">
      <g>
        <svg viewBox="0 0 395.52 148.8446709754773" height="148.8446709754773" width="395.52">
          <g transform="matrix(1,0,0,1,0,90.36128149104646)">
            <svg viewBox="0 0 395.52 58.48338948443083" height="58.48338948443083" width="395.52">
              <g>
                <svg viewBox="0 0 395.52 58.48338948443083" height="58.48338948443083" width="395.52">
                  <g>
                    <svg viewBox="0 0 395.52 58.48338948443083" height="58.48338948443083" width="395.52">
                      <g transform="matrix(1,0,0,1,0,0)">
                        <svg width="395.52" viewBox="2.549999952316284 -34.04999923706055 293.82000732421875 43.44999694824219" height="58.48338948443083" data-palette-color="#bb86fc">
                          <path d="M15.3 0.6L15.3 0.6Q12.15 0.6 9.78-0.4 7.4-1.4 5.78-3.2 4.15-5 3.35-7.48 2.55-9.95 2.55-12.95L2.55-12.95Q2.55-15.95 3.43-18.45 4.3-20.95 5.9-22.78 7.5-24.6 9.83-25.63 12.15-26.65 15-26.65L15-26.65Q16.75-26.65 18.5-26.35 20.25-26.05 21.85-25.4L21.85-25.4 20.8-21.45Q19.75-21.95 18.38-22.25 17-22.55 15.45-22.55L15.45-22.55Q11.55-22.55 9.47-20.1 7.4-17.65 7.4-12.95L7.4-12.95Q7.4-10.85 7.88-9.1 8.35-7.35 9.38-6.1 10.4-4.85 12-4.17 13.6-3.5 15.9-3.5L15.9-3.5Q17.75-3.5 19.25-3.85 20.75-4.2 21.6-4.6L21.6-4.6 22.25-0.7Q21.85-0.45 21.1-0.23 20.35 0 19.4 0.18 18.45 0.35 17.38 0.48 16.3 0.6 15.3 0.6ZM36.05-3.35L36.05-3.35Q37.7-3.35 38.97-3.43 40.25-3.5 41.1-3.7L41.1-3.7 41.1-11.45Q40.6-11.7 39.47-11.88 38.35-12.05 36.75-12.05L36.75-12.05Q35.7-12.05 34.52-11.9 33.35-11.75 32.37-11.28 31.4-10.8 30.75-9.98 30.1-9.15 30.1-7.8L30.1-7.8Q30.1-5.3 31.7-4.33 33.3-3.35 36.05-3.35ZM35.65-26.65L35.65-26.65Q38.45-26.65 40.37-25.93 42.3-25.2 43.47-23.88 44.65-22.55 45.15-20.73 45.65-18.9 45.65-16.7L45.65-16.7 45.65-0.45Q45.05-0.35 43.97-0.18 42.9 0 41.55 0.15 40.2 0.3 38.62 0.43 37.05 0.55 35.5 0.55L35.5 0.55Q33.3 0.55 31.45 0.1 29.6-0.35 28.25-1.33 26.9-2.3 26.15-3.9 25.4-5.5 25.4-7.75L25.4-7.75Q25.4-9.9 26.27-11.45 27.15-13 28.65-13.95 30.15-14.9 32.15-15.35 34.15-15.8 36.35-15.8L36.35-15.8Q37.05-15.8 37.8-15.73 38.55-15.65 39.22-15.53 39.9-15.4 40.4-15.3 40.9-15.2 41.1-15.15L41.1-15.15 41.1-16.45Q41.1-17.6 40.85-18.73 40.6-19.85 39.95-20.73 39.3-21.6 38.17-22.13 37.05-22.65 35.25-22.65L35.25-22.65Q32.95-22.65 31.22-22.33 29.5-22 28.65-21.65L28.65-21.65 28.1-25.5Q29-25.9 31.1-26.28 33.2-26.65 35.65-26.65ZM62.95-26.55L62.95-26.55Q63.55-26.55 64.32-26.48 65.09-26.4 65.84-26.28 66.59-26.15 67.22-26.03 67.84-25.9 68.14-25.8L68.14-25.8 67.34-21.75Q66.8-21.95 65.52-22.23 64.25-22.5 62.24-22.5L62.24-22.5Q60.95-22.5 59.67-22.23 58.39-21.95 57.99-21.85L57.99-21.85 57.99 0 53.34 0 53.34-24.9Q54.99-25.5 57.45-26.03 59.89-26.55 62.95-26.55ZM88.94-1.5L88.94-2.6Q88.34-2.2 86.62-1.58 84.89-0.95 82.59-0.95L82.59-0.95Q80.24-0.95 78.17-1.7 76.09-2.45 74.54-4.03 72.99-5.6 72.09-7.95 71.19-10.3 71.19-13.55L71.19-13.55Q71.19-16.4 72.04-18.78 72.89-21.15 74.52-22.88 76.14-24.6 78.49-25.58 80.84-26.55 83.79-26.55L83.79-26.55Q87.04-26.55 89.47-26.08 91.89-25.6 93.54-25.2L93.54-25.2 93.54-2Q93.54 4 90.44 6.7 87.34 9.4 81.04 9.4L81.04 9.4Q78.59 9.4 76.42 9 74.24 8.6 72.64 8.05L72.64 8.05 73.49 4Q74.89 4.55 76.92 4.98 78.94 5.4 81.14 5.4L81.14 5.4Q85.29 5.4 87.12 3.75 88.94 2.1 88.94-1.5L88.94-1.5ZM88.89-6.7L88.89-21.9Q88.19-22.1 87.02-22.28 85.84-22.45 83.84-22.45L83.84-22.45Q80.09-22.45 78.07-20 76.04-17.55 76.04-13.5L76.04-13.5Q76.04-11.25 76.62-9.65 77.19-8.05 78.17-7 79.14-5.95 80.42-5.45 81.69-4.95 83.04-4.95L83.04-4.95Q84.89-4.95 86.44-5.48 87.99-6 88.89-6.7L88.89-6.7ZM117.84-1.5L117.84-2.6Q117.24-2.2 115.52-1.58 113.79-0.95 111.49-0.95L111.49-0.95Q109.14-0.95 107.07-1.7 104.99-2.45 103.44-4.03 101.89-5.6 100.99-7.95 100.09-10.3 100.09-13.55L100.09-13.55Q100.09-16.4 100.94-18.78 101.79-21.15 103.42-22.88 105.04-24.6 107.39-25.58 109.74-26.55 112.69-26.55L112.69-26.55Q115.94-26.55 118.37-26.08 120.79-25.6 122.44-25.2L122.44-25.2 122.44-2Q122.44 4 119.34 6.7 116.24 9.4 109.94 9.4L109.94 9.4Q107.49 9.4 105.32 9 103.14 8.6 101.54 8.05L101.54 8.05 102.39 4Q103.79 4.55 105.82 4.98 107.84 5.4 110.04 5.4L110.04 5.4Q114.19 5.4 116.02 3.75 117.84 2.1 117.84-1.5L117.84-1.5ZM117.79-6.7L117.79-21.9Q117.09-22.1 115.92-22.28 114.74-22.45 112.74-22.45L112.74-22.45Q108.99-22.45 106.97-20 104.94-17.55 104.94-13.5L104.94-13.5Q104.94-11.25 105.52-9.65 106.09-8.05 107.07-7 108.04-5.95 109.32-5.45 110.59-4.95 111.94-4.95L111.94-4.95Q113.79-4.95 115.34-5.48 116.89-6 117.79-6.7L117.79-6.7ZM140.04-26.55L140.04-26.55Q140.64-26.55 141.41-26.48 142.19-26.4 142.94-26.28 143.69-26.15 144.31-26.03 144.94-25.9 145.24-25.8L145.24-25.8 144.44-21.75Q143.89-21.95 142.61-22.23 141.34-22.5 139.34-22.5L139.34-22.5Q138.04-22.5 136.76-22.23 135.49-21.95 135.09-21.85L135.09-21.85 135.09 0 130.44 0 130.44-24.9Q132.09-25.5 134.54-26.03 136.99-26.55 140.04-26.55ZM148.29-12.95L148.29-12.95Q148.29-16.4 149.29-18.98 150.29-21.55 151.94-23.25 153.59-24.95 155.74-25.8 157.89-26.65 160.14-26.65L160.14-26.65Q165.39-26.65 168.19-23.38 170.99-20.1 170.99-13.4L170.99-13.4Q170.99-13.1 170.99-12.63 170.99-12.15 170.94-11.75L170.94-11.75 153.14-11.75Q153.44-7.7 155.49-5.6 157.54-3.5 161.89-3.5L161.89-3.5Q164.34-3.5 166.01-3.93 167.69-4.35 168.54-4.75L168.54-4.75 169.19-0.85Q168.34-0.4 166.21 0.1 164.09 0.6 161.39 0.6L161.39 0.6Q157.99 0.6 155.51-0.43 153.04-1.45 151.44-3.25 149.84-5.05 149.06-7.53 148.29-10 148.29-12.95ZM153.24-15.5L166.14-15.5Q166.19-18.65 164.56-20.68 162.94-22.7 160.09-22.7L160.09-22.7Q158.49-22.7 157.26-22.08 156.04-21.45 155.19-20.45 154.34-19.45 153.86-18.15 153.39-16.85 153.24-15.5L153.24-15.5ZM193.98-1.5L193.98-2.6Q193.38-2.2 191.66-1.58 189.93-0.95 187.63-0.95L187.63-0.95Q185.28-0.95 183.21-1.7 181.13-2.45 179.58-4.03 178.03-5.6 177.13-7.95 176.23-10.3 176.23-13.55L176.23-13.55Q176.23-16.4 177.08-18.78 177.93-21.15 179.56-22.88 181.18-24.6 183.53-25.58 185.88-26.55 188.83-26.55L188.83-26.55Q192.08-26.55 194.51-26.08 196.93-25.6 198.58-25.2L198.58-25.2 198.58-2Q198.58 4 195.48 6.7 192.38 9.4 186.08 9.4L186.08 9.4Q183.63 9.4 181.46 9 179.28 8.6 177.68 8.05L177.68 8.05 178.53 4Q179.93 4.55 181.96 4.98 183.98 5.4 186.18 5.4L186.18 5.4Q190.33 5.4 192.16 3.75 193.98 2.1 193.98-1.5L193.98-1.5ZM193.93-6.7L193.93-21.9Q193.23-22.1 192.06-22.28 190.88-22.45 188.88-22.45L188.88-22.45Q185.13-22.45 183.11-20 181.08-17.55 181.08-13.5L181.08-13.5Q181.08-11.25 181.66-9.65 182.23-8.05 183.21-7 184.18-5.95 185.46-5.45 186.73-4.95 188.08-4.95L188.08-4.95Q189.93-4.95 191.48-5.48 193.03-6 193.93-6.7L193.93-6.7ZM215.38-3.35L215.38-3.35Q217.03-3.35 218.31-3.43 219.58-3.5 220.43-3.7L220.43-3.7 220.43-11.45Q219.93-11.7 218.81-11.88 217.68-12.05 216.08-12.05L216.08-12.05Q215.03-12.05 213.86-11.9 212.68-11.75 211.71-11.28 210.73-10.8 210.08-9.98 209.43-9.15 209.43-7.8L209.43-7.8Q209.43-5.3 211.03-4.33 212.63-3.35 215.38-3.35ZM214.98-26.65L214.98-26.65Q217.78-26.65 219.71-25.93 221.63-25.2 222.81-23.88 223.98-22.55 224.48-20.73 224.98-18.9 224.98-16.7L224.98-16.7 224.98-0.45Q224.38-0.35 223.31-0.18 222.23 0 220.88 0.15 219.53 0.3 217.96 0.43 216.38 0.55 214.83 0.55L214.83 0.55Q212.63 0.55 210.78 0.1 208.93-0.35 207.58-1.33 206.23-2.3 205.48-3.9 204.73-5.5 204.73-7.75L204.73-7.75Q204.73-9.9 205.61-11.45 206.48-13 207.98-13.95 209.48-14.9 211.48-15.35 213.48-15.8 215.68-15.8L215.68-15.8Q216.38-15.8 217.13-15.73 217.88-15.65 218.56-15.53 219.23-15.4 219.73-15.3 220.23-15.2 220.43-15.15L220.43-15.15 220.43-16.45Q220.43-17.6 220.18-18.73 219.93-19.85 219.28-20.73 218.63-21.6 217.51-22.13 216.38-22.65 214.58-22.65L214.58-22.65Q212.28-22.65 210.56-22.33 208.83-22 207.98-21.65L207.98-21.65 207.43-25.5Q208.33-25.9 210.43-26.28 212.53-26.65 214.98-26.65ZM237.03-34.05L237.03-26 246.88-26 246.88-22.1 237.03-22.1 237.03-10.1Q237.03-8.15 237.33-6.88 237.63-5.6 238.23-4.88 238.83-4.15 239.73-3.85 240.63-3.55 241.83-3.55L241.83-3.55Q243.93-3.55 245.2-4.03 246.48-4.5 246.98-4.7L246.98-4.7 247.88-0.85Q247.18-0.5 245.43 0.03 243.68 0.55 241.43 0.55L241.43 0.55Q238.78 0.55 237.05-0.13 235.33-0.8 234.28-2.15 233.23-3.5 232.8-5.48 232.38-7.45 232.38-10.05L232.38-10.05 232.38-33.25 237.03-34.05ZM275.03-13L275.03-13Q275.03-9.9 274.13-7.4 273.23-4.9 271.6-3.1 269.98-1.3 267.73-0.33 265.48 0.65 262.83 0.65L262.83 0.65Q260.18 0.65 257.93-0.33 255.68-1.3 254.05-3.1 252.43-4.9 251.53-7.4 250.63-9.9 250.63-13L250.63-13Q250.63-16.05 251.53-18.57 252.43-21.1 254.05-22.9 255.68-24.7 257.93-25.68 260.18-26.65 262.83-26.65L262.83-26.65Q265.48-26.65 267.73-25.68 269.98-24.7 271.6-22.9 273.23-21.1 274.13-18.57 275.03-16.05 275.03-13ZM270.18-13L270.18-13Q270.18-17.4 268.2-19.98 266.23-22.55 262.83-22.55L262.83-22.55Q259.43-22.55 257.45-19.98 255.48-17.4 255.48-13L255.48-13Q255.48-8.6 257.45-6.03 259.43-3.45 262.83-3.45L262.83-3.45Q266.23-3.45 268.2-6.03 270.18-8.6 270.18-13ZM291.17-26.55L291.17-26.55Q291.77-26.55 292.55-26.48 293.32-26.4 294.07-26.28 294.82-26.15 295.45-26.03 296.07-25.9 296.37-25.8L296.37-25.8 295.57-21.75Q295.02-21.95 293.75-22.23 292.47-22.5 290.47-22.5L290.47-22.5Q289.17-22.5 287.9-22.23 286.62-21.95 286.22-21.85L286.22-21.85 286.22 0 281.57 0 281.57-24.9Q283.22-25.5 285.67-26.03 288.12-26.55 291.17-26.55Z" opacity="1" transform="matrix(1,0,0,1,0,0)" fill="#bb86fc" class="undefined-text-0" data-fill-palette-color="primary" id="path-1"/>
                        </svg>
                      </g>
                    </svg>
                  </g>
                </svg>
              </g>
            </svg>
          </g>
          <g transform="matrix(1,0,0,1,157.9867719270724,0)">
            <svg viewBox="0 0 79.54645614585517 76.55475683511996" height="76.55475683511996" width="79.54645614585517">
              <g>
                <svg xmlns="http://www.w3.org/2000/svg" version="1.1" x="0" y="0" viewBox="1.2940001487731934 3.783989906311035 97.34200286865234 93.68102264404297" enable-background="new 0 0 100 100" height="76.55475683511996" width="79.54645614585517" class="icon-icon-0" data-fill-palette-color="accent" id="svg-1">
                  <g fill="#bb86fc" data-fill-palette-color="accent">
                    <path d="M75.984 64.604H23.601c1.72 3.613 12.79 6.4 26.192 6.4C63.193 71.004 74.266 68.217 75.984 64.604L75.984 64.604zM6.639 54.232c-0.164 3.265 3.689 6.716 8.606 7.703 4.916 0.989 9.033-0.854 9.197-4.119 0.164-3.268-3.689-6.717-8.605-7.706C10.92 49.121 6.803 50.967 6.639 54.232L6.639 54.232zM49.791 8.024C38.698 8.095 25.766 8.495 15.15 11.048c-0.942 0.18-1.053 1.171-1.053 1.171l-0.909 24.142c-0.078 4.187 4.705 6.09 36.602 6.191 31.899-0.101 36.681-2.004 36.604-6.191l-0.91-24.142c0 0-0.109-0.991-1.053-1.171C73.814 8.495 60.884 8.095 49.791 8.024L49.791 8.024zM92.941 54.232c-0.164-3.267-4.279-5.112-9.195-4.122-4.916 0.989-8.77 4.438-8.605 7.706 0.164 3.266 4.28 5.108 9.196 4.119C89.255 60.948 93.105 57.497 92.941 54.232L92.941 54.232zM49.966 88.538l-2.916-0.002c-10.834-0.041-21.461-0.251-30.302-0.9v4.933c0 2.705-2.192 4.896-4.896 4.896H7.826c-2.704 0-4.896-2.188-4.896-4.896V82.268c-0.105-0.916-0.216-1.97-0.324-3.147-0.832-4.317-1.312-9.418-1.312-14.886 0-6.932 0.774-13.28 2.056-18.184 0.254-1.117 0.562-2.114 0.911-3.003 0.107-0.305 0.218-0.602 0.33-0.891L9.462 8.825c0 0 0.196-1.388 1.439-1.698 11.178-3.042 38.13-3.345 39.065-3.343 0.933-0.002 27.888 0.301 39.063 3.343 1.242 0.31 1.441 1.698 1.441 1.698l4.868 33.332c0.111 0.289 0.224 0.586 0.33 0.891 0.349 0.889 0.656 1.886 0.912 3.003 1.28 4.903 2.056 11.252 2.056 18.184 0 5.468-0.48 10.567-1.312 14.886-0.108 1.179-0.219 2.231-0.325 3.147v10.301c0 2.705-2.19 4.896-4.894 4.896h-4.027c-2.703 0-4.896-2.188-4.896-4.896v-4.932c-8.841 0.648-19.467 0.858-30.302 0.899L49.966 88.538 49.966 88.538z" fill="#bb86fc" data-fill-palette-color="accent"/>
                  </g>
                </svg>
              </g>
            </svg>
          </g>
          <g/>
        </svg>
      </g>
    </svg>
    <rect width="395.52" height="148.8446709754773" fill="none" stroke="none" visibility="hidden"/>
  </g>
</svg>